# xmcd
#
# Track frame offsets: 
#        150
#        13625
#        32865
#        49165
#        69301
#        83330
#        87124
#        103181
#        118426
#        139089
#
# Disc length: 2095 seconds
#
# Revision: 1
# Processed by: cddbd v1.5.2PL0 Copyright (c) Steve Scherf et al.
# Submitted via: ExactAudioCopy v0.99pb4
#
DISCID=7f082d0a
DTITLE=Band of Horses - Cease to Begin
DYEAR=2007
DGENRE=Rock
TTITLE0=Is There a Ghost
TTITLE1=Ode to LRC
TTITLE2=No One's Gonna Love You
TTITLE3=Detlef Schrempf
TTITLE4=The General Specific
TTITLE5=Lamb on the Lam (in the City)
TTITLE6=Islands on the Coast
TTITLE7=Marry Song
TTITLE8=Cigarettes, Wedding Bands
TTITLE9=Window Blues
EXTD=
EXTT0=
EXTT1=
EXTT2=
EXTT3=
EXTT4=
EXTT5=
EXTT6=
EXTT7=
EXTT8=
EXTT9=
PLAYORDER=
